# xmcd CD database file
#
# Track frame offsets:
#	150
#	19297
#	39881
#	55108
#	71001
#	85833
#	102860
#	122376
#	138686
#	152412
#	175767
#	189436
#	204660
#	222527
#	236505
#	252274
#	271808
#	290106
#	312407
#
# Disc length: 4434 seconds
#
# Revision: 0
# Processed by: cddbd v1.5.1PL0 Copyright (c) Steve Scherf et al.
# Submitted via: CDex 1.51
#
DISCID=11115013
DTITLE=diverse - Line-Fire-Edition (6)
DYEAR=2004
DGENRE=LineDance
TTITLE0=01 - Alan Jackson - Sleazy Slide [ Gone Country ]
TTITLE1=02/ Clarance Carter - Sleazy Slide [ Strokin' ]
TTITLE2=03/ Twister Alley - The Billy [ Dance ]
TTITLE3=04 - Garth Brooks - Pina Colada Cha [ Two Pina Coladas ]
TTITLE4=05 - Engelbert Humperdinck - Quando When Quando [ Quando Quando Quando ]
TTITLE5=06 - Little Texas - L.A. Walk [ God Blessed Texas ]
TTITLE6=07 - Travis Tritt - Kick-N-Rock [ Honky Tonk Woman ]
TTITLE7=08 - LeAnn Rimes - Sweet Surrender [ Can't Fight The Moonlight ]
TTITLE8=09 - Dwight Yoakam - Four Corner [ Guitar , Cadillacs ]
TTITLE9=10 - Dave Sheriff - I Ride A Horse [ Stepping Out Fpr Harry ]
TTITLE10=11 - Dolly Parton - Rose Garden [ Rose Garden ]
TTITLE11=12 - Mary Chapin Carpenter - Cajun Slap [ Down At The Twist And Shout ]
TTITLE12=13 - Steve Holy - Just A Kiss [ Just A Kiss ]
TTITLE13=14 - The Mavericks - [ Here Comes my baby ]
TTITLE14=15 - Mary Chapin Carpenter - Sleazy Slide [ I Feel Lucky ]
TTITLE15=16 - Garth Brooks - [ Rodeo or Mexico ]
TTITLE16=17 - Stich It Up [ Elvis Medley] Dean Brothers
TTITLE17=18 - Billy Jean [ Billy Jean ] Michael Jackson
TTITLE18=19 - Can't Get Enough [ Can't Get Enough ] Taylor Dayne
EXTD=YEAR: 2004
EXTT0=
EXTT1=
EXTT2=
EXTT3=
EXTT4=
EXTT5=
EXTT6=
EXTT7=
EXTT8=
EXTT9=
EXTT10=
EXTT11=
EXTT12=
EXTT13=
EXTT14=
EXTT15=
EXTT16=
EXTT17=
EXTT18=
PLAYORDER=
